G04 DipTrace 2.3.1.0*
%INBottom.gbr*%
%MOIN*%
%ADD13C,0.0394*%
%ADD14C,0.1181*%
%ADD15C,0.0591*%
%ADD16C,0.0984*%
%ADD17C,0.025*%
%ADD18O,0.1181X0.063*%
%ADD19R,0.063X0.063*%
%ADD20R,0.1575X0.1575*%
%ADD21O,0.0472X0.1181*%
%ADD22O,0.1181X0.0591*%
%ADD23O,0.0591X0.1181*%
%ADD24O,0.1969X0.0984*%
%ADD25O,0.0984X0.1969*%
%ADD26C,0.0787*%
%FSLAX44Y44*%
G04*
G70*
G90*
G75*
G01*
%LNBottom*%
%LPD*%
X34469Y6437D2*
D13*
X37250D1*
X39816Y9003D1*
Y14058D1*
X39125Y14750D1*
X37000D1*
X36437Y14187D1*
Y13937D1*
X35437Y12937D1*
X34937D1*
X31437D1*
X30187Y11687D1*
X26187D1*
X24687Y13187D1*
Y14437D1*
X25187Y14937D1*
Y17937D1*
X6437Y8906D2*
X4937D1*
Y6062D1*
X6062Y4937D1*
X8562D1*
X5937Y13446D2*
X4937Y12446D1*
Y9437D1*
X5469Y8906D1*
X6437D1*
X13438Y16438D2*
Y17563D1*
X9563D1*
X5937Y13937D1*
Y13446D1*
X18687Y17937D2*
Y14687D1*
X15811Y17563D1*
X13438D1*
X18687Y17937D2*
Y18437D1*
X19437Y19187D1*
X23937D1*
X25187Y17937D1*
X32437Y6437D2*
X32187D1*
X31187Y5437D1*
X10063D1*
X8562Y6937D1*
Y8250D1*
X10500Y10188D1*
Y14251D2*
Y15501D1*
X11313Y16313D1*
X12313D1*
X12438Y16438D1*
X31937Y10687D2*
D14*
X32687Y11437D1*
X35687D1*
X37187Y12937D1*
X38437D1*
X22687Y11937D2*
X24187Y10437D1*
X31437D1*
X31937Y10937D1*
Y10687D1*
X19687Y14687D2*
Y17937D1*
X18159Y11937D2*
X19687Y13465D1*
Y14687D1*
X27187Y14937D2*
D13*
Y17937D1*
X20687D2*
Y14687D1*
X34937Y14937D2*
X34408D1*
X32846Y16500D1*
X30750D1*
X30245Y15995D1*
Y14995D1*
X29187Y13937D1*
X27687D1*
X27187Y14437D1*
Y14937D1*
X34408D2*
X34319D1*
X33687Y14305D1*
Y13687D1*
Y10187D2*
Y9687D1*
X33334Y9334D1*
X30834D1*
X30437Y8937D1*
X23187D1*
X21187Y10937D1*
Y13687D1*
X20687Y14187D1*
Y14687D1*
X28187Y14937D2*
Y17937D1*
X21687D2*
Y14687D1*
X34937Y15937D2*
X34437D1*
X33125Y17250D1*
X30249D1*
X29687D1*
X28937Y18000D1*
X28250D1*
X28187Y17937D1*
X30249Y17250D2*
X29375Y16375D1*
Y16125D1*
X23750D2*
X23437Y16437D1*
Y17187D1*
X22687Y17937D1*
X21687D1*
X31937Y15215D2*
D14*
X29659Y12937D1*
X27187D1*
X26187Y13937D1*
Y14937D1*
Y17937D1*
X7937Y13446D2*
D13*
X6937D1*
X17937Y7437D2*
D14*
X15187D1*
X9899Y12725D1*
X9178Y13446D1*
D15*
X8937D1*
X6437Y10937D2*
D16*
X8111D1*
D14*
X9899Y12725D1*
X22465Y7437D2*
X20465Y9437D1*
X17689D1*
X14563Y12563D1*
Y16438D1*
D13*
X14438D1*
X24909Y7437D2*
D14*
X22465D1*
X29437D2*
X30937D1*
X31687Y8187D1*
X36687D1*
X38437Y9937D1*
D26*
X10500Y10188D3*
Y14251D3*
X33687Y13687D3*
Y10187D3*
X29375Y16125D3*
X23750D3*
X14439Y19445D2*
D17*
X29998D1*
X14439Y19197D2*
X29998D1*
X14439Y18948D2*
X29998D1*
X14439Y18699D2*
X19143D1*
X21107D2*
X21263D1*
X22107D2*
X25643D1*
X27607D2*
X27763D1*
X28607D2*
X29998D1*
X14439Y18450D2*
X18896D1*
X22837D2*
X25396D1*
X29239D2*
X29998D1*
X14439Y18202D2*
X18779D1*
X23196D2*
X25279D1*
X29509D2*
X29998D1*
X14439Y17953D2*
X18740D1*
X23443D2*
X25240D1*
X29755D2*
X29998D1*
X4347Y17704D2*
X18740D1*
X23693D2*
X25240D1*
X33419D2*
X40143D1*
X4347Y17456D2*
X18740D1*
X23919D2*
X25240D1*
X33693D2*
X40143D1*
X4347Y17207D2*
X4834D1*
X5388D2*
X12002D1*
X12876D2*
X14002D1*
X15099D2*
X18740D1*
X22239D2*
X22643D1*
X23989D2*
X25240D1*
X28739D2*
X28955D1*
X33939D2*
X38322D1*
X39575D2*
X40143D1*
X5802Y16958D2*
X11826D1*
X13048D2*
X13775D1*
X15349D2*
X18740D1*
X22239D2*
X22885D1*
X23989D2*
X25240D1*
X28739D2*
X29186D1*
X34189D2*
X38119D1*
X39778D2*
X40143D1*
X5974Y16710D2*
X10939D1*
X13091D2*
X13658D1*
X15470D2*
X18740D1*
X22239D2*
X22885D1*
X24204D2*
X25240D1*
X28739D2*
X28918D1*
X34439D2*
X38025D1*
X39872D2*
X40143D1*
X6048Y16461D2*
X10689D1*
X13091D2*
X13615D1*
X15509D2*
X18740D1*
X22239D2*
X22885D1*
X24419D2*
X25240D1*
X35603D2*
X38002D1*
X39896D2*
X40143D1*
X6052Y16212D2*
X10439D1*
X13091D2*
X13615D1*
X15509D2*
X18740D1*
X22239D2*
X22936D1*
X24493D2*
X25240D1*
X35821D2*
X38049D1*
X39849D2*
X40143D1*
X5989Y15964D2*
X10189D1*
X13064D2*
X13615D1*
X15509D2*
X18740D1*
X22239D2*
X23018D1*
X24482D2*
X25240D1*
X35884D2*
X38178D1*
X39720D2*
X40143D1*
X5833Y15715D2*
X9990D1*
X11486D2*
X11955D1*
X12923D2*
X13615D1*
X15509D2*
X18740D1*
X22239D2*
X23127D1*
X24372D2*
X25240D1*
X35845D2*
X38451D1*
X39446D2*
X40143D1*
X4347Y15466D2*
X4736D1*
X5486D2*
X9947D1*
X11239D2*
X13615D1*
X15509D2*
X18740D1*
X22239D2*
X23420D1*
X24079D2*
X25240D1*
X28751D2*
X29045D1*
X35673D2*
X40143D1*
X4347Y15218D2*
X9947D1*
X11052D2*
X13615D1*
X15509D2*
X18740D1*
X22251D2*
X25240D1*
X28778D2*
X29689D1*
X33079D2*
X33353D1*
X35818D2*
X40143D1*
X4347Y14969D2*
X9947D1*
X11052D2*
X13615D1*
X15509D2*
X18740D1*
X22278D2*
X25240D1*
X28778D2*
X29447D1*
X33079D2*
X33580D1*
X35884D2*
X40143D1*
X4347Y14720D2*
X9924D1*
X11079D2*
X13615D1*
X15509D2*
X18740D1*
X22278D2*
X25240D1*
X28778D2*
X29197D1*
X33079D2*
X33330D1*
X35845D2*
X40143D1*
X4347Y14471D2*
X9783D1*
X11216D2*
X13615D1*
X15509D2*
X18740D1*
X22278D2*
X25240D1*
X28771D2*
X28947D1*
X33079D2*
X33161D1*
X35677D2*
X40143D1*
X4347Y14223D2*
X6510D1*
X8364D2*
X8514D1*
X11251D2*
X13615D1*
X15509D2*
X18740D1*
X22271D2*
X25240D1*
X35814D2*
X40143D1*
X4347Y13974D2*
X6330D1*
X11196D2*
X13615D1*
X15509D2*
X18740D1*
X22153D2*
X25240D1*
X32025D2*
X32994D1*
X35884D2*
X37291D1*
X39579D2*
X40143D1*
X4347Y13725D2*
X6283D1*
X11025D2*
X13615D1*
X15509D2*
X18619D1*
X21739D2*
X25264D1*
X31778D2*
X32939D1*
X35849D2*
X36682D1*
X39579D2*
X40143D1*
X4347Y13477D2*
X6283D1*
X10478D2*
X13615D1*
X15509D2*
X18369D1*
X21739D2*
X25361D1*
X31528D2*
X32967D1*
X35685D2*
X36396D1*
X39579D2*
X40143D1*
X4347Y13228D2*
X6283D1*
X10724D2*
X13615D1*
X15509D2*
X18123D1*
X21739D2*
X25568D1*
X31278D2*
X33100D1*
X34275D2*
X36150D1*
X39579D2*
X40143D1*
X4347Y12979D2*
X6311D1*
X10974D2*
X13615D1*
X15509D2*
X17014D1*
X20497D2*
X20633D1*
X23829D2*
X25814D1*
X31032D2*
X33502D1*
X33872D2*
X35900D1*
X39579D2*
X40143D1*
X4347Y12731D2*
X6447D1*
X11224D2*
X13615D1*
X15724D2*
X17014D1*
X20282D2*
X20635D1*
X23829D2*
X26064D1*
X30782D2*
X35650D1*
X39579D2*
X40143D1*
X4347Y12482D2*
X8326D1*
X11470D2*
X13619D1*
X15974D2*
X17014D1*
X20032D2*
X20635D1*
X23829D2*
X26314D1*
X30532D2*
X35404D1*
X39579D2*
X40143D1*
X4347Y12233D2*
X8080D1*
X11720D2*
X13678D1*
X16224D2*
X17014D1*
X19786D2*
X20635D1*
X23829D2*
X26564D1*
X30282D2*
X32197D1*
X39579D2*
X40143D1*
X4347Y11985D2*
X7830D1*
X11970D2*
X13818D1*
X16470D2*
X17014D1*
X19536D2*
X20635D1*
X23970D2*
X31904D1*
X39579D2*
X40143D1*
X4347Y11736D2*
X5717D1*
X12216D2*
X14061D1*
X16720D2*
X17014D1*
X19302D2*
X20635D1*
X24216D2*
X30791D1*
X37314D2*
X40143D1*
X4347Y11487D2*
X5307D1*
X12466D2*
X14311D1*
X19302D2*
X20635D1*
X24466D2*
X30791D1*
X37068D2*
X40143D1*
X4347Y11239D2*
X5154D1*
X9743D2*
X10057D1*
X12716D2*
X14557D1*
X19302D2*
X20635D1*
X36818D2*
X40143D1*
X4347Y10990D2*
X5100D1*
X9493D2*
X10307D1*
X12962D2*
X14807D1*
X19302D2*
X20635D1*
X36568D2*
X37291D1*
X39579D2*
X40143D1*
X4347Y10741D2*
X5119D1*
X9243D2*
X10006D1*
X13212D2*
X15057D1*
X17716D2*
X20670D1*
X22153D2*
X22553D1*
X36318D2*
X37291D1*
X39579D2*
X40143D1*
X4347Y10492D2*
X5225D1*
X8997D2*
X9818D1*
X13462D2*
X15303D1*
X17962D2*
X20857D1*
X22403D2*
X22803D1*
X34368D2*
X37291D1*
X39579D2*
X40143D1*
X4347Y10244D2*
X5475D1*
X8743D2*
X9752D1*
X13708D2*
X15553D1*
X20935D2*
X21107D1*
X22653D2*
X23053D1*
X34435D2*
X37291D1*
X39579D2*
X40143D1*
X4347Y9995D2*
X9533D1*
X11224D2*
X11302D1*
X13958D2*
X15803D1*
X21236D2*
X21359D1*
X22900D2*
X23299D1*
X34411D2*
X37166D1*
X39579D2*
X40143D1*
X4347Y9746D2*
X9287D1*
X11103D2*
X11549D1*
X14208D2*
X16049D1*
X21486D2*
X21602D1*
X23150D2*
X23549D1*
X34290D2*
X36916D1*
X39579D2*
X40143D1*
X4347Y9498D2*
X9037D1*
X10751D2*
X11799D1*
X14454D2*
X16299D1*
X21732D2*
X21851D1*
X23400D2*
X30225D1*
X34204D2*
X36670D1*
X39579D2*
X40143D1*
X4347Y9249D2*
X8791D1*
X10333D2*
X12045D1*
X14704D2*
X16549D1*
X21982D2*
X22101D1*
X34021D2*
X36420D1*
X39579D2*
X40143D1*
X4347Y9000D2*
X8541D1*
X10087D2*
X12295D1*
X14954D2*
X16795D1*
X22232D2*
X22351D1*
X39579D2*
X40143D1*
X4347Y8752D2*
X8291D1*
X9837D2*
X12545D1*
X15200D2*
X17049D1*
X22478D2*
X22599D1*
X38579D2*
X40143D1*
X4347Y8503D2*
X8072D1*
X9587D2*
X12791D1*
X15450D2*
X16791D1*
X19079D2*
X20068D1*
X38333D2*
X40143D1*
X4347Y8254D2*
X8010D1*
X9341D2*
X13041D1*
X19079D2*
X20318D1*
X26052D2*
X28291D1*
X38083D2*
X40143D1*
X4347Y8006D2*
X8010D1*
X9114D2*
X13291D1*
X19079D2*
X20568D1*
X26052D2*
X28291D1*
X37833D2*
X40143D1*
X4347Y7757D2*
X5764D1*
X6443D2*
X8010D1*
X9114D2*
X13537D1*
X19079D2*
X20814D1*
X26052D2*
X28291D1*
X37587D2*
X40143D1*
X4347Y7508D2*
X5393D1*
X6810D2*
X7893D1*
X9236D2*
X13787D1*
X19079D2*
X21064D1*
X26052D2*
X28291D1*
X37337D2*
X40143D1*
X4347Y7260D2*
X5232D1*
X6974D2*
X7893D1*
X9236D2*
X14037D1*
X19079D2*
X21314D1*
X26052D2*
X28291D1*
X33216D2*
X40143D1*
X4347Y7011D2*
X5162D1*
X7040D2*
X7893D1*
X9263D2*
X14283D1*
X19079D2*
X21322D1*
X26052D2*
X28291D1*
X33282D2*
X38381D1*
X39517D2*
X40143D1*
X4347Y6762D2*
X5162D1*
X7040D2*
X7893D1*
X9509D2*
X14533D1*
X19079D2*
X21322D1*
X26052D2*
X28291D1*
X33286D2*
X38146D1*
X39751D2*
X40143D1*
X4347Y6513D2*
X5236D1*
X6970D2*
X7893D1*
X9759D2*
X16791D1*
X19079D2*
X21322D1*
X23611D2*
X23764D1*
X26052D2*
X28291D1*
X30579D2*
X31490D1*
X33286D2*
X38037D1*
X39861D2*
X40143D1*
X4347Y6265D2*
X5400D1*
X6806D2*
X8463D1*
X10009D2*
X31244D1*
X33286D2*
X38002D1*
X39896D2*
X40143D1*
X4347Y6016D2*
X5783D1*
X6423D2*
X8713D1*
X10255D2*
X30994D1*
X33286D2*
X38037D1*
X39861D2*
X40143D1*
X4347Y5767D2*
X8959D1*
X33267D2*
X38146D1*
X39751D2*
X40143D1*
X4347Y5519D2*
X9209D1*
X33165D2*
X38381D1*
X39517D2*
X40143D1*
X4347Y5270D2*
X9459D1*
X31794D2*
X31939D1*
X32935D2*
X40143D1*
X4347Y5021D2*
X9713D1*
X31540D2*
X40143D1*
X4347Y4773D2*
X40143D1*
X4347Y4524D2*
X40143D1*
X9091Y7584D2*
X9209D1*
Y7041D1*
X10282Y5966D1*
X30965D1*
X31611Y6609D1*
X31613Y6808D1*
X31495Y6703D1*
X31391Y6634D1*
X31278Y6580D1*
X31159Y6542D1*
X31084Y6526D1*
X30937Y6515D1*
X30558D1*
X30556Y6318D1*
X28318D1*
X28312Y8408D1*
X26027D1*
X26029Y6318D1*
X23790D1*
X23784Y6515D1*
X23585D1*
X23584Y6318D1*
X21345D1*
Y7251D1*
X20080Y8517D1*
X19054Y8515D1*
X19056Y6318D1*
X16818D1*
X16812Y6515D1*
X15187D1*
X15062Y6523D1*
X14940Y6548D1*
X14822Y6590D1*
X14711Y6647D1*
X14647Y6689D1*
X14535Y6785D1*
X11223Y10097D1*
X11183Y9943D1*
X11131Y9829D1*
X11060Y9726D1*
X10973Y9637D1*
X10871Y9564D1*
X10759Y9510D1*
X10639Y9476D1*
X10520Y9460D1*
X9092Y8032D1*
X9091Y7582D1*
X8463Y6290D2*
X7916D1*
Y7584D1*
X8037D1*
X8034Y8250D1*
X8049Y8374D1*
X8092Y8491D1*
X8189Y8624D1*
X9777Y10212D1*
X9781Y10283D1*
X9808Y10405D1*
X9855Y10520D1*
X9922Y10626D1*
X10006Y10719D1*
X10104Y10796D1*
X10214Y10854D1*
X10333Y10894D1*
X10414Y10906D1*
X9897Y11422D1*
X9049Y10570D1*
X8764Y10285D1*
X8669Y10203D1*
X8565Y10134D1*
X8452Y10080D1*
X8334Y10042D1*
X8211Y10020D1*
X8086Y10015D1*
X7961Y10027D1*
X7840Y10055D1*
X7699Y10113D1*
X5864Y10117D1*
X5741Y10139D1*
X5623Y10179D1*
X5512Y10236D1*
X5411Y10309D1*
X5322Y10397D1*
X5248Y10497D1*
X5190Y10608D1*
X5148Y10726D1*
X5126Y10849D1*
X5122Y10973D1*
X5137Y11097D1*
X5170Y11218D1*
X5221Y11332D1*
X5289Y11436D1*
X5372Y11530D1*
X5469Y11609D1*
X5576Y11674D1*
X5691Y11721D1*
X5813Y11750D1*
X5945Y11761D1*
X6929Y11757D1*
X7187Y11761D1*
X7636Y11766D1*
X8539Y12669D1*
X8478Y12723D1*
X8438Y12776D1*
X8375Y12702D1*
X8329Y12665D1*
X8327Y12507D1*
X6586D1*
Y12628D1*
X6478Y12723D1*
X6403Y12823D1*
X6348Y12935D1*
X6317Y13056D1*
X6310Y13151D1*
X6314Y13741D1*
X6329Y13894D1*
X6371Y14012D1*
X6436Y14118D1*
X6521Y14210D1*
X6587Y14258D1*
X6586Y14384D1*
X8327D1*
Y14232D1*
X8436Y14117D1*
X8521Y14210D1*
X8622Y14283D1*
X8735Y14335D1*
X8857Y14363D1*
X8982Y14367D1*
X9039Y14357D1*
X9130Y14367D1*
X9255Y14365D1*
X9378Y14346D1*
X9498Y14311D1*
X9612Y14260D1*
X9718Y14194D1*
X9781Y14141D1*
Y14346D1*
X9808Y14468D1*
X9855Y14583D1*
X9922Y14689D1*
X9971Y14751D1*
Y15501D1*
X9986Y15625D1*
X10030Y15742D1*
X10126Y15875D1*
X10939Y16687D1*
X11037Y16764D1*
X11150Y16816D1*
X11313Y16842D1*
X11817D1*
X11872Y17004D1*
X11937Y17111D1*
X12022Y17203D1*
X12123Y17276D1*
X12236Y17327D1*
X12358Y17356D1*
X12483Y17359D1*
X12606Y17338D1*
X12722Y17293D1*
X12827Y17225D1*
X12917Y17139D1*
X12988Y17036D1*
X13037Y16921D1*
X13062Y16799D1*
X13065Y16359D1*
X13061Y16143D1*
X13053Y16019D1*
X13016Y15900D1*
X12956Y15790D1*
X12876Y15694D1*
X12779Y15616D1*
X12668Y15559D1*
X12548Y15526D1*
X12423Y15516D1*
X12299Y15531D1*
X12181Y15571D1*
X12073Y15633D1*
X11979Y15716D1*
X11925Y15787D1*
X11528Y15785D1*
X11026Y15279D1*
X11029Y14747D1*
X11100Y14659D1*
X11161Y14550D1*
X11203Y14432D1*
X11226Y14251D1*
X11215Y14126D1*
X11183Y14006D1*
X11131Y13892D1*
X11060Y13789D1*
X10973Y13700D1*
X10871Y13627D1*
X10759Y13573D1*
X10639Y13538D1*
X10515Y13525D1*
X10394Y13533D1*
X15570Y8358D1*
X16816Y8359D1*
X16818Y8556D1*
X17415D1*
X17255Y8623D1*
X17149Y8689D1*
X17037Y8785D1*
X13911Y11911D1*
X13829Y12005D1*
X13760Y12109D1*
X13706Y12222D1*
X13668Y12341D1*
X13653Y12416D1*
X13641Y12563D1*
Y16438D1*
X13649Y16563D1*
X13674Y16685D1*
X13716Y16803D1*
X13773Y16914D1*
X13844Y17017D1*
X14022Y17203D1*
X14123Y17276D1*
X14236Y17327D1*
X14358Y17356D1*
X14614Y17359D1*
X14738Y17344D1*
X14859Y17312D1*
X14974Y17264D1*
X15082Y17201D1*
X15180Y17124D1*
X15267Y17034D1*
X15341Y16934D1*
X15401Y16824D1*
X15445Y16707D1*
X15474Y16585D1*
X15486Y16438D1*
Y12942D1*
X17041Y11389D1*
X17040Y13056D1*
X17974D1*
X18764Y13846D1*
X18765Y17937D1*
X18773Y18062D1*
X18798Y18184D1*
X18840Y18302D1*
X18897Y18413D1*
X18968Y18515D1*
X19053Y18607D1*
X19149Y18687D1*
X19256Y18752D1*
X19370Y18803D1*
X19490Y18838D1*
X19613Y18856D1*
X19738Y18858D1*
X19862Y18843D1*
X19983Y18811D1*
X20098Y18763D1*
X20258Y18659D1*
X20299Y18706D1*
X20399Y18781D1*
X20513Y18832D1*
X20635Y18857D1*
X20760Y18855D1*
X20881Y18825D1*
X20993Y18770D1*
X21090Y18692D1*
X21168Y18594D1*
X21186Y18556D1*
X21218Y18612D1*
X21299Y18706D1*
X21399Y18781D1*
X21513Y18832D1*
X21635Y18857D1*
X21760Y18855D1*
X21881Y18825D1*
X21993Y18770D1*
X22090Y18692D1*
X22168Y18594D1*
X22227Y18463D1*
X22687Y18466D1*
X22811Y18451D1*
X22928Y18408D1*
X23061Y18311D1*
X23811Y17561D1*
X23888Y17463D1*
X23940Y17350D1*
X23966Y17187D1*
Y16816D1*
X24069Y16776D1*
X24176Y16711D1*
X24270Y16630D1*
X24349Y16533D1*
X24410Y16424D1*
X24452Y16306D1*
X24475Y16125D1*
X24464Y16000D1*
X24432Y15879D1*
X24380Y15766D1*
X24309Y15663D1*
X24222Y15574D1*
X24121Y15501D1*
X24008Y15447D1*
X23888Y15412D1*
X23764Y15399D1*
X23640Y15407D1*
X23518Y15437D1*
X23404Y15487D1*
X23300Y15555D1*
X23209Y15641D1*
X23134Y15741D1*
X23077Y15852D1*
X23040Y15971D1*
X23025Y16107D1*
X22986Y16161D1*
X22934Y16274D1*
X22908Y16437D1*
Y16964D1*
X22469Y17407D1*
X22230Y17408D1*
X22216Y17312D1*
Y15246D1*
X22251Y15110D1*
X22255Y14791D1*
X22251Y14333D1*
X22241Y14209D1*
X22201Y14091D1*
X22136Y13984D1*
X22049Y13895D1*
X21945Y13826D1*
X21828Y13782D1*
X21708Y13765D1*
X21716Y13687D1*
Y13058D1*
X23806Y13056D1*
Y12123D1*
X24568Y11360D1*
X30816Y11359D1*
X30818Y11806D1*
X31626D1*
X31744Y11839D1*
X31815Y11870D1*
X32129Y12171D1*
X32233Y12240D1*
X32346Y12294D1*
X32465Y12332D1*
X32540Y12348D1*
X32687Y12359D1*
X35308D1*
X36535Y13589D1*
X36629Y13671D1*
X36733Y13740D1*
X36846Y13794D1*
X36965Y13832D1*
X37040Y13848D1*
X37187Y13859D1*
X37316D1*
X37318Y14056D1*
X39556D1*
Y11818D1*
X37371D1*
X36339Y10785D1*
X36245Y10703D1*
X36141Y10634D1*
X36028Y10580D1*
X35909Y10542D1*
X35834Y10526D1*
X35687Y10515D1*
X34332D1*
X34389Y10369D1*
X34413Y10187D1*
X34402Y10063D1*
X34370Y9942D1*
X34318Y9828D1*
X34217Y9695D1*
X34201Y9563D1*
X34158Y9446D1*
X34061Y9313D1*
X33859Y9112D1*
X36308Y9109D1*
X37319Y10124D1*
X37318Y11056D1*
X39556D1*
Y8818D1*
X38623D1*
X37339Y7535D1*
X37245Y7453D1*
X37141Y7384D1*
X37028Y7330D1*
X36909Y7292D1*
X36834Y7276D1*
X36687Y7265D1*
X33191D1*
X33242Y7105D1*
X33261Y6929D1*
X33257Y5945D1*
X33252Y5820D1*
X33223Y5699D1*
X33177Y5583D1*
X33114Y5475D1*
X33035Y5378D1*
X32943Y5294D1*
X32838Y5225D1*
X32725Y5173D1*
X32605Y5138D1*
X32481Y5122D1*
X32356Y5125D1*
X32233Y5146D1*
X32115Y5186D1*
X32004Y5244D1*
X31903Y5317D1*
X31856Y5364D1*
X31677Y5179D1*
X31561Y5063D1*
X31463Y4986D1*
X31350Y4934D1*
X31187Y4908D1*
X10063D1*
X9939Y4923D1*
X9822Y4966D1*
X9689Y5063D1*
X8460Y6292D1*
X22505Y10818D2*
X22052D1*
X23409Y9463D1*
X24187Y9466D1*
X30214D1*
X30265Y9512D1*
X27562Y9515D1*
X24187D1*
X24062Y9523D1*
X23940Y9548D1*
X23822Y9590D1*
X23711Y9647D1*
X23647Y9689D1*
X23535Y9785D1*
X22499Y10821D1*
X19279Y11755D2*
Y10818D1*
X17611D1*
X18069Y10362D1*
X20314Y10359D1*
X20589Y10351D1*
X20712Y10326D1*
X20829Y10284D1*
X20940Y10227D1*
X21004Y10185D1*
X21117Y10089D1*
X22650Y8556D1*
X22818D1*
X20813Y10563D1*
X20736Y10661D1*
X20684Y10774D1*
X20658Y10937D1*
Y13464D1*
X20612Y13515D1*
X20601Y13340D1*
X20576Y13218D1*
X20534Y13100D1*
X20477Y12989D1*
X20435Y12925D1*
X20339Y12812D1*
X19276Y11749D1*
X33056Y15541D2*
Y14095D1*
X32123D1*
X30312Y12285D1*
X30218Y12203D1*
X30113Y12134D1*
X30001Y12080D1*
X29882Y12042D1*
X29807Y12026D1*
X29659Y12015D1*
X27187D1*
X27062Y12023D1*
X26940Y12048D1*
X26822Y12090D1*
X26711Y12147D1*
X26647Y12189D1*
X26535Y12285D1*
X25535Y13285D1*
X25453Y13379D1*
X25384Y13483D1*
X25330Y13596D1*
X25292Y13715D1*
X25276Y13790D1*
X25265Y13937D1*
Y17937D1*
X25273Y18062D1*
X25298Y18184D1*
X25340Y18302D1*
X25397Y18413D1*
X25468Y18515D1*
X25553Y18607D1*
X25649Y18687D1*
X25756Y18752D1*
X25870Y18803D1*
X25990Y18838D1*
X26113Y18856D1*
X26238Y18858D1*
X26362Y18843D1*
X26483Y18811D1*
X26598Y18763D1*
X26758Y18659D1*
X26799Y18706D1*
X26899Y18781D1*
X27013Y18832D1*
X27135Y18857D1*
X27260Y18855D1*
X27381Y18825D1*
X27493Y18770D1*
X27590Y18692D1*
X27668Y18594D1*
X27686Y18556D1*
X27718Y18612D1*
X27799Y18706D1*
X27899Y18781D1*
X28013Y18832D1*
X28135Y18857D1*
X28260Y18855D1*
X28381Y18825D1*
X28493Y18770D1*
X28590Y18692D1*
X28668Y18594D1*
X28700Y18527D1*
X28937Y18528D1*
X29061Y18513D1*
X29178Y18470D1*
X29311Y18373D1*
X29905Y17779D1*
X30042Y17778D1*
X30023Y17850D1*
Y19694D1*
X14414D1*
Y17850D1*
X14353Y17745D1*
X14289Y17725D1*
X4322D1*
Y16792D1*
X4379Y16880D1*
X4462Y16974D1*
X4556Y17056D1*
X4661Y17124D1*
X4773Y17178D1*
X4892Y17216D1*
X5015Y17237D1*
X5140Y17242D1*
X5265Y17230D1*
X5386Y17201D1*
X5503Y17156D1*
X5612Y17095D1*
X5712Y17020D1*
X5801Y16933D1*
X5878Y16834D1*
X5940Y16726D1*
X5987Y16610D1*
X6019Y16490D1*
X6034Y16320D1*
X6026Y16195D1*
X6001Y16073D1*
X5959Y15955D1*
X5902Y15844D1*
X5831Y15742D1*
X5746Y15650D1*
X5650Y15570D1*
X5543Y15505D1*
X5429Y15454D1*
X5309Y15419D1*
X5186Y15400D1*
X5061Y15399D1*
X4937Y15414D1*
X4816Y15446D1*
X4701Y15494D1*
X4593Y15557D1*
X4495Y15634D1*
X4408Y15724D1*
X4321Y15849D1*
X4322Y4322D1*
X40166D1*
Y17725D1*
X33365Y17720D1*
X33498Y17623D1*
X34562Y16560D1*
X35142Y16564D1*
X35232Y16560D1*
X35277Y16563D1*
X35400Y16541D1*
X35516Y16496D1*
X35621Y16429D1*
X35711Y16342D1*
X35782Y16239D1*
X35831Y16124D1*
X35856Y16002D1*
X35859Y15937D1*
X35847Y15813D1*
X35810Y15694D1*
X35751Y15584D1*
X35670Y15488D1*
X35606Y15437D1*
X35711Y15342D1*
X35782Y15239D1*
X35831Y15124D1*
X35856Y15002D1*
X35859Y14937D1*
X35847Y14813D1*
X35810Y14694D1*
X35751Y14584D1*
X35670Y14488D1*
X35606Y14437D1*
X35711Y14342D1*
X35782Y14239D1*
X35831Y14124D1*
X35856Y14002D1*
X35859Y13937D1*
X35847Y13813D1*
X35810Y13694D1*
X35751Y13584D1*
X35670Y13488D1*
X35573Y13410D1*
X35462Y13353D1*
X35342Y13320D1*
X35232Y13310D1*
X34642Y13314D1*
X34503Y13325D1*
X34385Y13365D1*
X34347Y13386D1*
X34247Y13226D1*
X34160Y13136D1*
X34058Y13064D1*
X33946Y13009D1*
X33826Y12975D1*
X33702Y12962D1*
X33577Y12970D1*
X33456Y12999D1*
X33341Y13049D1*
X33237Y13118D1*
X33146Y13203D1*
X33071Y13303D1*
X33015Y13414D1*
X32978Y13534D1*
X32962Y13658D1*
X32968Y13782D1*
X32995Y13904D1*
X33042Y14020D1*
X33109Y14125D1*
X33158Y14187D1*
Y14305D1*
X33173Y14428D1*
X33216Y14545D1*
X33313Y14678D1*
X33614Y14980D1*
X33054Y15544D1*
X39862Y16383D2*
X39837Y16260D1*
X39796Y16143D1*
X39738Y16032D1*
X39667Y15929D1*
X39582Y15837D1*
X39486Y15758D1*
X39380Y15692D1*
X39266Y15641D1*
X39146Y15606D1*
X39022Y15588D1*
X38897Y15586D1*
X38773Y15602D1*
X38653Y15634D1*
X38537Y15682D1*
X38429Y15745D1*
X38331Y15822D1*
X38244Y15912D1*
X38170Y16012D1*
X38110Y16122D1*
X38066Y16239D1*
X38038Y16360D1*
X38026Y16485D1*
X38032Y16609D1*
X38054Y16732D1*
X38092Y16851D1*
X38147Y16964D1*
X38216Y17068D1*
X38298Y17162D1*
X38392Y17243D1*
X38497Y17312D1*
X38610Y17365D1*
X38729Y17403D1*
X38852Y17425D1*
X38977Y17429D1*
X39101Y17417D1*
X39222Y17388D1*
X39339Y17343D1*
X39448Y17283D1*
X39548Y17208D1*
X39637Y17120D1*
X39714Y17022D1*
X39776Y16914D1*
X39824Y16798D1*
X39855Y16677D1*
X39871Y16507D1*
X39862Y16383D1*
Y6140D2*
X39837Y6018D1*
X39796Y5900D1*
X39738Y5789D1*
X39667Y5687D1*
X39582Y5595D1*
X39486Y5515D1*
X39380Y5449D1*
X39266Y5399D1*
X39146Y5364D1*
X39022Y5345D1*
X38897Y5344D1*
X38773Y5359D1*
X38653Y5391D1*
X38537Y5439D1*
X38429Y5502D1*
X38331Y5579D1*
X38244Y5669D1*
X38170Y5769D1*
X38110Y5879D1*
X38066Y5996D1*
X38038Y6118D1*
X38026Y6242D1*
X38032Y6367D1*
X38054Y6490D1*
X38092Y6608D1*
X38147Y6721D1*
X38216Y6825D1*
X38298Y6919D1*
X38392Y7001D1*
X38497Y7069D1*
X38610Y7123D1*
X38729Y7161D1*
X38852Y7182D1*
X38977Y7187D1*
X39101Y7174D1*
X39222Y7146D1*
X39339Y7100D1*
X39448Y7040D1*
X39548Y6965D1*
X39637Y6878D1*
X39714Y6779D1*
X39776Y6671D1*
X39824Y6555D1*
X39855Y6434D1*
X39871Y6265D1*
X39862Y6140D1*
X7016Y6765D2*
X6991Y6643D1*
X6950Y6525D1*
X6893Y6414D1*
X6821Y6312D1*
X6736Y6220D1*
X6640Y6140D1*
X6534Y6074D1*
X6420Y6024D1*
X6300Y5989D1*
X6176Y5970D1*
X6051Y5969D1*
X5927Y5984D1*
X5807Y6016D1*
X5691Y6064D1*
X5583Y6127D1*
X5485Y6204D1*
X5398Y6294D1*
X5324Y6394D1*
X5264Y6504D1*
X5220Y6621D1*
X5192Y6743D1*
X5180Y6867D1*
X5186Y6992D1*
X5208Y7115D1*
X5246Y7233D1*
X5301Y7346D1*
X5370Y7450D1*
X5452Y7544D1*
X5546Y7626D1*
X5651Y7694D1*
X5764Y7748D1*
X5883Y7786D1*
X6006Y7807D1*
X6131Y7812D1*
X6255Y7799D1*
X6376Y7771D1*
X6493Y7725D1*
X6602Y7665D1*
X6702Y7590D1*
X6792Y7503D1*
X6868Y7404D1*
X6931Y7296D1*
X6978Y7180D1*
X7009Y7059D1*
X7025Y6890D1*
X7016Y6765D1*
X28717Y15492D2*
X28751Y15360D1*
X28755Y15041D1*
X28751Y14583D1*
X28742Y14463D1*
X28964Y14466D1*
X29716Y15214D1*
Y15483D1*
X29633Y15447D1*
X29513Y15412D1*
X29389Y15399D1*
X29265Y15407D1*
X29143Y15437D1*
X29029Y15487D1*
X28925Y15555D1*
X28834Y15641D1*
X28759Y15741D1*
X28714Y15828D1*
X28716Y15496D1*
Y17378D2*
Y16425D1*
X28796Y16563D1*
X28880Y16655D1*
X29001Y16748D1*
X29219Y16967D1*
X28741Y17447D1*
D18*
X8562Y4937D3*
D19*
Y6937D3*
D20*
X22687Y11937D3*
X18159D3*
X31937Y10687D3*
Y15215D3*
X17937Y7437D3*
X22465D3*
X29437D3*
X24909D3*
X38437Y9937D3*
Y12937D3*
D21*
X18687Y17937D3*
X19687D3*
X20687D3*
X21687D3*
X25187D3*
X26187D3*
X27187D3*
X28187D3*
X18687Y14687D3*
X19687D3*
X20687D3*
X21687D3*
X25187Y14937D3*
X26187D3*
X27187D3*
X28187D3*
D22*
X34937Y12937D3*
Y13937D3*
Y14937D3*
Y15937D3*
D23*
X8937Y13446D3*
X7937D3*
X6937D3*
X5937D3*
X14438Y16438D3*
X13438D3*
X12438D3*
D24*
X6437Y10937D3*
Y8906D3*
D25*
X32437Y6437D3*
X34469D3*
G36*
X6918Y14053D2*
X7995D1*
Y12839D1*
X6918D1*
Y14053D1*
G37*
M02*
