M48
INCH
T01C0.0354
T02C0.0472
T03C0.0591
T04C0.1181
%
T01
X+008562Y+004937
X+008562Y+006937
X+010500Y+010188
X+008937Y+013446
X+007937Y+013446
X+006937Y+013446
X+005937Y+013446
X+010500Y+014251
X+012438Y+016438
X+013438Y+016438
X+014438Y+016438
X+018687Y+017937
X+019687Y+017937
X+020687Y+017937
X+021687Y+017937
X+023750Y+016125
X+025187Y+014937
X+026187Y+014937
X+027187Y+014937
X+028187Y+014937
X+029375Y+016125
X+028187Y+017937
X+027187Y+017937
X+026187Y+017937
X+025187Y+017937
X+021687Y+014687
X+020687Y+014687
X+019687Y+014687
X+018687Y+014687
X+033687Y+013687
X+034937Y+013937
X+034937Y+014937
X+034937Y+015937
X+034937Y+012937
X+033687Y+010187
T02
X+038437Y+009937
X+038437Y+012937
T03
X+022687Y+011937
X+022465Y+007437
X+024909Y+007437
X+029437Y+007437
X+032437Y+006437
X+034469Y+006437
X+031937Y+010687
X+031937Y+015215
X+018159Y+011937
X+017937Y+007437
X+006437Y+008906
X+006437Y+010937
T04
X+005112Y+016320
X+006102Y+006890
X+038948Y+006265
X+038948Y+016507
T00
M30
