G04 DipTrace 2.3.1.0*
%INBottom.gbr*%
%MOIN*%
%ADD13C,0.0394*%
%ADD14C,0.025*%
%ADD18R,0.0551X0.1083*%
%ADD19O,0.06X0.1181*%
%ADD20O,0.1181X0.0591*%
%ADD21O,0.0591X0.1181*%
%ADD22O,0.1575X0.0787*%
%ADD23C,0.07*%
%FSLAX44Y44*%
G04*
G70*
G90*
G75*
G01*
%LNBottom*%
%LPD*%
X12598Y8545D2*
D13*
Y11203D1*
X7120Y8535D2*
Y11193D1*
X29572Y17686D2*
X27936D1*
X26187Y15937D1*
X16687D1*
X15437Y14687D1*
Y7937D2*
X16187Y7187D1*
X17066D1*
X23638D1*
X26937D1*
X27437Y6687D1*
X29937D1*
X30687Y7437D1*
Y10187D1*
X31187Y10687D1*
X31687D1*
X11937Y13937D2*
Y14500D1*
X12374Y14937D1*
X14437D1*
X15437Y15937D1*
X16687D1*
X12598Y11203D2*
X21671D1*
X22937Y9937D1*
Y7888D1*
X23638Y7187D1*
X7120Y8535D2*
Y7004D1*
X8187Y5937D1*
X15816D1*
X17066Y7187D1*
X14215Y15987D2*
Y17449D1*
X10937Y13937D2*
Y16187D1*
X11437Y16687D1*
X13453D1*
X14215Y17449D1*
Y16813D1*
X23311D1*
X23437Y16687D1*
X25437D1*
X27189Y18439D1*
X30377D1*
X30937Y17879D1*
Y13687D1*
X29936Y12686D1*
X29572D1*
X8695Y8535D2*
Y11193D1*
X7450Y12437D1*
X6187D1*
X5437Y13187D1*
Y15687D1*
X7199Y17449D1*
X9215D1*
X8695Y8535D2*
X9589D1*
X10937Y7187D1*
X12937D1*
X15187Y9437D1*
X16437D1*
X17187Y10187D1*
Y12937D2*
X17687Y13437D1*
X21937D1*
X23937Y11437D1*
X25687D1*
X28937Y14687D1*
X29571D1*
X29572Y14686D1*
X11024Y11203D2*
Y8545D1*
Y8774D1*
X9215Y15987D2*
X8237D1*
X7437Y15187D1*
Y13437D1*
X8687Y12187D1*
X10437D1*
X10937Y11687D1*
Y11203D1*
X11024D1*
Y11774D1*
X11437Y12187D1*
X21937D1*
X23687Y10437D1*
X25814D1*
X29064Y13687D1*
X29571D1*
X29572Y13686D1*
X8937Y13937D2*
Y14313D1*
X10187Y15563D1*
Y17063D1*
X11563Y18439D1*
X17626D1*
X18439Y17626D1*
Y14437D2*
X27437D1*
X28686Y15686D1*
X29572D1*
X9937Y13937D2*
Y13376D1*
X10376Y12937D1*
X15187D1*
X17437Y15187D1*
X26937D1*
X28436Y16686D1*
X29572D1*
X31687Y9687D2*
Y6437D1*
X30937Y5687D1*
X28828D1*
X28744Y5772D1*
X31687Y11687D2*
X30937D1*
X29937Y10687D1*
Y8933D1*
X28744Y7740D1*
X31687Y12687D2*
X30937D1*
X28744Y10494D1*
Y9709D1*
D23*
X15437Y14687D3*
Y7937D3*
X17187Y10187D3*
Y12937D3*
X18439Y17626D3*
Y14437D3*
X4347Y18264D2*
D14*
X8838D1*
X9591D2*
X10615D1*
X18704D2*
X23728D1*
X25216D2*
X29006D1*
X30134D2*
X33057D1*
X4347Y18015D2*
X4627D1*
X5747D2*
X8623D1*
X9810D2*
X10369D1*
X19025D2*
X23584D1*
X25357D2*
X27494D1*
X30427D2*
X31627D1*
X32747D2*
X33057D1*
X6017Y17767D2*
X6744D1*
X9872D2*
X10119D1*
X11665D2*
X17525D1*
X19130D2*
X23529D1*
X25415D2*
X27244D1*
X30513D2*
X31353D1*
X6157Y17518D2*
X6494D1*
X11415D2*
X17740D1*
X19138D2*
X23541D1*
X25403D2*
X26994D1*
X30497D2*
X31217D1*
X11165Y17269D2*
X17834D1*
X19044D2*
X23623D1*
X25318D2*
X26748D1*
X30361D2*
X31158D1*
X10919Y17021D2*
X18100D1*
X18778D2*
X23811D1*
X25134D2*
X26498D1*
X30423D2*
X31158D1*
X7294Y16772D2*
X8689D1*
X10739D2*
X24326D1*
X24614D2*
X26248D1*
X30513D2*
X31225D1*
X7044Y16523D2*
X8607D1*
X10739D2*
X26002D1*
X30497D2*
X31373D1*
X4347Y16275D2*
X4662D1*
X6798D2*
X7752D1*
X10739D2*
X15002D1*
X30364D2*
X31662D1*
X32712D2*
X33057D1*
X4347Y16026D2*
X5006D1*
X6548D2*
X7502D1*
X10739D2*
X14752D1*
X30419D2*
X33057D1*
X4347Y15777D2*
X4893D1*
X6298D2*
X7256D1*
X10739D2*
X14506D1*
X30513D2*
X33057D1*
X4347Y15529D2*
X4885D1*
X6052D2*
X7010D1*
X10739D2*
X14256D1*
X30497D2*
X33057D1*
X4347Y15280D2*
X4885D1*
X5989D2*
X6893D1*
X8302D2*
X8717D1*
X10657D2*
X11943D1*
X30368D2*
X33057D1*
X4347Y15031D2*
X4885D1*
X5989D2*
X6885D1*
X8052D2*
X8885D1*
X10427D2*
X11697D1*
X30415D2*
X33057D1*
X4347Y14782D2*
X4885D1*
X5989D2*
X6885D1*
X7989D2*
X8611D1*
X10263D2*
X11467D1*
X30513D2*
X33057D1*
X4347Y14534D2*
X4885D1*
X5989D2*
X6885D1*
X7989D2*
X8361D1*
X10513D2*
X11361D1*
X17556D2*
X17740D1*
X30501D2*
X33057D1*
X4347Y14285D2*
X4885D1*
X5989D2*
X6885D1*
X7989D2*
X8287D1*
X10587D2*
X11287D1*
X13587D2*
X14861D1*
X17306D2*
X17748D1*
X30372D2*
X33057D1*
X4347Y14036D2*
X4885D1*
X5989D2*
X6885D1*
X7989D2*
X8283D1*
X10587D2*
X11283D1*
X13587D2*
X15209D1*
X17060D2*
X17861D1*
X30411D2*
X33057D1*
X4347Y13788D2*
X4885D1*
X5989D2*
X6885D1*
X7989D2*
X8283D1*
X10587D2*
X11283D1*
X13587D2*
X15264D1*
X16810D2*
X17264D1*
X22361D2*
X27264D1*
X30509D2*
X33057D1*
X4347Y13539D2*
X4885D1*
X5989D2*
X6885D1*
X8107D2*
X8293D1*
X10579D2*
X11295D1*
X13579D2*
X15018D1*
X16560D2*
X16842D1*
X22607D2*
X24096D1*
X24849D2*
X27018D1*
X30501D2*
X33057D1*
X4347Y13290D2*
X4885D1*
X6107D2*
X6904D1*
X16314D2*
X16580D1*
X22857D2*
X23748D1*
X25193D2*
X26768D1*
X30376D2*
X31197D1*
X32177D2*
X33057D1*
X4347Y13042D2*
X4904D1*
X6357D2*
X7061D1*
X8607D2*
X8733D1*
X9146D2*
X9502D1*
X16064D2*
X16490D1*
X23107D2*
X23596D1*
X25349D2*
X26518D1*
X29193D2*
X30518D1*
X32525D2*
X33057D1*
X4347Y12793D2*
X5057D1*
X8853D2*
X9748D1*
X15814D2*
X16494D1*
X17880D2*
X21807D1*
X23353D2*
X23528D1*
X25411D2*
X26271D1*
X28943D2*
X30271D1*
X32626D2*
X33057D1*
X4347Y12544D2*
X5307D1*
X25407D2*
X26021D1*
X28693D2*
X30021D1*
X32618D2*
X33057D1*
X4347Y12296D2*
X5557D1*
X25333D2*
X25771D1*
X28446D2*
X29771D1*
X32497D2*
X33057D1*
X4347Y12047D2*
X5807D1*
X25161D2*
X25525D1*
X28196D2*
X29525D1*
X32521D2*
X33057D1*
X4347Y11798D2*
X6486D1*
X27946D2*
X29275D1*
X32626D2*
X33057D1*
X4347Y11550D2*
X6486D1*
X9325D2*
X10303D1*
X11657D2*
X11967D1*
X27700D2*
X29025D1*
X32618D2*
X33057D1*
X4347Y11301D2*
X6486D1*
X9325D2*
X10385D1*
X11657D2*
X11967D1*
X27450D2*
X28779D1*
X32501D2*
X33057D1*
X4347Y11052D2*
X6486D1*
X7751D2*
X8064D1*
X9325D2*
X10393D1*
X11657D2*
X11967D1*
X27200D2*
X28529D1*
X32517D2*
X33057D1*
X4347Y10803D2*
X6486D1*
X7751D2*
X8064D1*
X9325D2*
X10393D1*
X11657D2*
X11967D1*
X26954D2*
X28291D1*
X32622D2*
X33057D1*
X4347Y10555D2*
X6486D1*
X7751D2*
X8064D1*
X9325D2*
X10393D1*
X11657D2*
X11967D1*
X13232D2*
X16588D1*
X17786D2*
X21545D1*
X26704D2*
X28193D1*
X32618D2*
X33057D1*
X4347Y10306D2*
X6568D1*
X7673D2*
X8143D1*
X9247D2*
X10471D1*
X11575D2*
X12045D1*
X13153D2*
X16490D1*
X17884D2*
X21795D1*
X26454D2*
X27912D1*
X32505D2*
X33057D1*
X4347Y10057D2*
X6568D1*
X7673D2*
X8143D1*
X9247D2*
X10471D1*
X11575D2*
X12045D1*
X13153D2*
X16283D1*
X17880D2*
X22045D1*
X26208D2*
X27689D1*
X32513D2*
X33057D1*
X4347Y9809D2*
X6568D1*
X7673D2*
X8143D1*
X9247D2*
X10471D1*
X11575D2*
X12045D1*
X13153D2*
X14787D1*
X17778D2*
X22291D1*
X23489D2*
X27607D1*
X32622D2*
X33057D1*
X4347Y9560D2*
X6568D1*
X7673D2*
X8143D1*
X9247D2*
X10471D1*
X11575D2*
X12045D1*
X13153D2*
X14537D1*
X17482D2*
X22385D1*
X23489D2*
X27615D1*
X32622D2*
X33057D1*
X4347Y9311D2*
X6486D1*
X7751D2*
X8064D1*
X9325D2*
X10393D1*
X11657D2*
X11967D1*
X13232D2*
X14287D1*
X17083D2*
X22385D1*
X23489D2*
X27717D1*
X32509D2*
X33057D1*
X4347Y9063D2*
X6486D1*
X7751D2*
X8064D1*
X9646D2*
X10393D1*
X11657D2*
X11967D1*
X13232D2*
X14041D1*
X16837D2*
X22385D1*
X23489D2*
X27994D1*
X32239D2*
X33057D1*
X4347Y8814D2*
X6486D1*
X7751D2*
X8064D1*
X10083D2*
X10393D1*
X11657D2*
X11967D1*
X13232D2*
X13791D1*
X15337D2*
X22385D1*
X23489D2*
X29045D1*
X32239D2*
X33057D1*
X4347Y8565D2*
X6486D1*
X7751D2*
X8064D1*
X11657D2*
X11967D1*
X13232D2*
X13541D1*
X15728D2*
X22385D1*
X23489D2*
X28795D1*
X32239D2*
X33057D1*
X4347Y8317D2*
X6486D1*
X7751D2*
X8064D1*
X11657D2*
X11967D1*
X16028D2*
X22385D1*
X23489D2*
X27885D1*
X32239D2*
X33057D1*
X4347Y8068D2*
X6486D1*
X7751D2*
X8064D1*
X11657D2*
X11967D1*
X14591D2*
X14744D1*
X16130D2*
X22385D1*
X23528D2*
X27678D1*
X29845D2*
X30135D1*
X32239D2*
X33057D1*
X4347Y7819D2*
X6486D1*
X7751D2*
X8064D1*
X11657D2*
X11967D1*
X14341D2*
X14740D1*
X16325D2*
X22389D1*
X23778D2*
X27603D1*
X29884D2*
X30135D1*
X32239D2*
X33057D1*
X4347Y7571D2*
X6568D1*
X7673D2*
X8670D1*
X14095D2*
X14838D1*
X27325D2*
X27619D1*
X29868D2*
X30049D1*
X32239D2*
X33057D1*
X4347Y7322D2*
X4537D1*
X5837D2*
X6568D1*
X7673D2*
X8635D1*
X13845D2*
X15119D1*
X27575D2*
X27732D1*
X32239D2*
X33057D1*
X6064Y7073D2*
X6568D1*
X7821D2*
X8682D1*
X10193D2*
X10280D1*
X13595D2*
X15529D1*
X32239D2*
X33057D1*
X6177Y6824D2*
X6600D1*
X8071D2*
X8830D1*
X10044D2*
X10525D1*
X13349D2*
X15775D1*
X30849D2*
X31135D1*
X32239D2*
X33057D1*
X6224Y6576D2*
X6775D1*
X8321D2*
X9260D1*
X9614D2*
X15682D1*
X17228D2*
X26775D1*
X30599D2*
X31053D1*
X32239D2*
X33057D1*
X6204Y6327D2*
X7025D1*
X16978D2*
X27025D1*
X30349D2*
X30803D1*
X32228D2*
X33057D1*
X6118Y6078D2*
X7271D1*
X16728D2*
X27666D1*
X32099D2*
X33057D1*
X4347Y5830D2*
X4428D1*
X5946D2*
X7521D1*
X16482D2*
X27603D1*
X31853D2*
X33057D1*
X4347Y5581D2*
X4799D1*
X5575D2*
X7771D1*
X16232D2*
X27627D1*
X31603D2*
X33057D1*
X4347Y5332D2*
X27748D1*
X31357D2*
X33057D1*
X4347Y5084D2*
X28096D1*
X29392D2*
X33057D1*
X4347Y4835D2*
X33057D1*
X4347Y4586D2*
X33057D1*
X4347Y4338D2*
X33057D1*
X7728Y11413D2*
Y10319D1*
X7649Y10318D1*
Y9407D1*
X7728Y9408D1*
Y7662D1*
X7649Y7660D1*
Y7226D1*
X8408Y6464D1*
X9937Y6466D1*
X15597D1*
X15886Y6756D1*
X15813Y6813D1*
X15368Y7258D1*
X15260Y7279D1*
X15143Y7322D1*
X15036Y7386D1*
X14942Y7468D1*
X14865Y7566D1*
X14807Y7677D1*
X14770Y7796D1*
X14755Y7920D1*
X14764Y8044D1*
X14795Y8165D1*
X14847Y8279D1*
X14919Y8381D1*
X15009Y8468D1*
X15113Y8537D1*
X15227Y8586D1*
X15349Y8613D1*
X15474Y8618D1*
X15597Y8600D1*
X15715Y8559D1*
X15824Y8498D1*
X15920Y8418D1*
X16000Y8322D1*
X16060Y8213D1*
X16100Y8095D1*
X16113Y8006D1*
X16405Y7717D1*
X22437Y7716D1*
X22410Y7852D1*
X22408Y9720D1*
X21450Y10676D1*
X20046Y10674D1*
X17670Y10668D1*
X17750Y10572D1*
X17810Y10463D1*
X17850Y10345D1*
X17869Y10187D1*
X17857Y10063D1*
X17824Y9943D1*
X17768Y9831D1*
X17694Y9731D1*
X17602Y9646D1*
X17496Y9579D1*
X17380Y9533D1*
X17254Y9509D1*
X16811Y9063D1*
X16713Y8986D1*
X16600Y8934D1*
X16437Y8908D1*
X15410D1*
X14677Y8179D1*
X13311Y6813D1*
X13213Y6736D1*
X13100Y6684D1*
X12937Y6658D1*
X10937D1*
X10813Y6673D1*
X10696Y6716D1*
X10563Y6813D1*
X10196Y7181D1*
X10173Y7091D1*
X10124Y6976D1*
X10058Y6871D1*
X9975Y6777D1*
X9878Y6698D1*
X9770Y6636D1*
X9654Y6592D1*
X9531Y6566D1*
X9406Y6561D1*
X9282Y6576D1*
X9163Y6611D1*
X9050Y6664D1*
X8947Y6735D1*
X8857Y6821D1*
X8781Y6921D1*
X8723Y7032D1*
X8684Y7150D1*
X8663Y7273D1*
Y7398D1*
X8683Y7521D1*
X8735Y7664D1*
X8087Y7662D1*
Y9408D1*
X8166Y9410D1*
Y10320D1*
X8087Y10319D1*
Y11050D1*
X7727Y11413D1*
X6594Y10319D2*
X6513D1*
Y11909D1*
X6187Y11908D1*
X6063Y11923D1*
X5946Y11966D1*
X5813Y12063D1*
X5063Y12813D1*
X4986Y12911D1*
X4934Y13024D1*
X4908Y13187D1*
Y15687D1*
X4923Y15811D1*
X4966Y15928D1*
X5063Y16061D1*
X5149Y16146D1*
X5028Y16156D1*
X4906Y16183D1*
X4788Y16225D1*
X4676Y16282D1*
X4573Y16351D1*
X4478Y16433D1*
X4395Y16526D1*
X4321Y16632D1*
X4322Y7048D1*
X4404Y7167D1*
X4489Y7259D1*
X4585Y7339D1*
X4690Y7407D1*
X4802Y7462D1*
X4921Y7502D1*
X5043Y7527D1*
X5167Y7538D1*
X5292Y7532D1*
X5415Y7512D1*
X5535Y7476D1*
X5650Y7426D1*
X5757Y7362D1*
X5856Y7285D1*
X5944Y7197D1*
X6021Y7099D1*
X6085Y6992D1*
X6136Y6878D1*
X6172Y6758D1*
X6193Y6635D1*
X6199Y6526D1*
X6191Y6401D1*
X6168Y6278D1*
X6130Y6159D1*
X6078Y6046D1*
X6012Y5940D1*
X5934Y5842D1*
X5844Y5756D1*
X5744Y5681D1*
X5636Y5618D1*
X5521Y5570D1*
X5400Y5536D1*
X5277Y5517D1*
X5152Y5514D1*
X5028Y5526D1*
X4906Y5553D1*
X4788Y5595D1*
X4676Y5652D1*
X4573Y5721D1*
X4478Y5803D1*
X4395Y5896D1*
X4321Y6002D1*
X4322Y4322D1*
X33080D1*
X33078Y16676D1*
X33012Y16569D1*
X32934Y16472D1*
X32844Y16386D1*
X32744Y16310D1*
X32636Y16248D1*
X32521Y16200D1*
X32400Y16166D1*
X32277Y16147D1*
X32152Y16144D1*
X32028Y16156D1*
X31906Y16183D1*
X31788Y16225D1*
X31676Y16282D1*
X31573Y16351D1*
X31478Y16433D1*
X31395Y16526D1*
X31323Y16628D1*
X31265Y16739D1*
X31220Y16855D1*
X31191Y16977D1*
X31176Y17101D1*
X31177Y17226D1*
X31194Y17350D1*
X31225Y17470D1*
X31271Y17587D1*
X31331Y17696D1*
X31404Y17797D1*
X31489Y17889D1*
X31585Y17969D1*
X31690Y18037D1*
X31802Y18092D1*
X31921Y18132D1*
X32043Y18157D1*
X32167Y18167D1*
X32292Y18162D1*
X32415Y18142D1*
X32535Y18106D1*
X32650Y18056D1*
X32757Y17992D1*
X32856Y17915D1*
X32944Y17827D1*
X33021Y17729D1*
X33079Y17632D1*
X33080Y18513D1*
X24881D1*
X24972Y18462D1*
X25072Y18387D1*
X25161Y18300D1*
X25237Y18201D1*
X25300Y18093D1*
X25347Y17977D1*
X25378Y17856D1*
X25394Y17686D1*
X25386Y17562D1*
X25360Y17440D1*
X25319Y17322D1*
X25262Y17211D1*
X25190Y17108D1*
X25106Y17016D1*
X25009Y16937D1*
X24903Y16871D1*
X24789Y16820D1*
X24669Y16785D1*
X24546Y16767D1*
X24421Y16765D1*
X24297Y16781D1*
X24176Y16813D1*
X24061Y16861D1*
X23953Y16924D1*
X23855Y17001D1*
X23768Y17091D1*
X23694Y17191D1*
X23634Y17301D1*
X23589Y17418D1*
X23561Y17539D1*
X23550Y17664D1*
X23555Y17788D1*
X23577Y17911D1*
X23616Y18030D1*
X23670Y18143D1*
X23739Y18247D1*
X23821Y18341D1*
X23916Y18423D1*
X24066Y18513D1*
X18302D1*
X18511Y18301D1*
X18599Y18289D1*
X18717Y18248D1*
X18826Y18187D1*
X18922Y18107D1*
X19001Y18011D1*
X19062Y17902D1*
X19102Y17784D1*
X19120Y17626D1*
X19109Y17502D1*
X19075Y17382D1*
X19020Y17270D1*
X18945Y17170D1*
X18853Y17085D1*
X18748Y17018D1*
X18632Y16972D1*
X18509Y16948D1*
X18385Y16946D1*
X18262Y16967D1*
X18145Y17011D1*
X18037Y17075D1*
X17944Y17157D1*
X17866Y17255D1*
X17808Y17366D1*
X17771Y17485D1*
X17764Y17551D1*
X17405Y17912D1*
X16251Y17910D1*
X11778D1*
X11053Y17181D1*
X10713Y16841D1*
X10716Y15938D1*
Y15563D1*
X10701Y15439D1*
X10658Y15322D1*
X10561Y15189D1*
X10182Y14810D1*
X10326Y14724D1*
X10416Y14637D1*
X10487Y14535D1*
X10535Y14420D1*
X10561Y14298D1*
X10564Y13857D1*
X10560Y13642D1*
X10551Y13514D1*
X10595Y13465D1*
X11333Y13466D1*
X11317Y13547D1*
X11310Y13642D1*
X11314Y14232D1*
X11329Y14386D1*
X11371Y14503D1*
X11414Y14573D1*
X11423Y14624D1*
X11466Y14741D1*
X11563Y14874D1*
X12000Y15311D1*
X12098Y15388D1*
X12212Y15440D1*
X12374Y15466D1*
X14222D1*
X14770Y16018D1*
X15063Y16311D1*
X15161Y16388D1*
X15274Y16440D1*
X15437Y16466D1*
X25964D1*
X26697Y17195D1*
X27563Y18060D1*
X27661Y18137D1*
X27774Y18190D1*
X27936Y18215D1*
X28940D1*
X29075Y18280D1*
X29196Y18308D1*
X29401Y18314D1*
X29867Y18310D1*
X29912Y18312D1*
X30035Y18291D1*
X30151Y18246D1*
X30256Y18178D1*
X30346Y18092D1*
X30417Y17989D1*
X30465Y17874D1*
X30491Y17752D1*
X30494Y17686D1*
X30482Y17562D1*
X30445Y17443D1*
X30385Y17333D1*
X30305Y17238D1*
X30241Y17187D1*
X30346Y17092D1*
X30417Y16989D1*
X30465Y16874D1*
X30491Y16752D1*
X30494Y16686D1*
X30482Y16562D1*
X30445Y16443D1*
X30385Y16333D1*
X30305Y16238D1*
X30241Y16187D1*
X30346Y16092D1*
X30417Y15989D1*
X30465Y15874D1*
X30491Y15752D1*
X30494Y15686D1*
X30482Y15562D1*
X30445Y15443D1*
X30385Y15333D1*
X30305Y15238D1*
X30241Y15187D1*
X30346Y15092D1*
X30417Y14989D1*
X30465Y14874D1*
X30491Y14752D1*
X30494Y14686D1*
X30482Y14562D1*
X30445Y14443D1*
X30385Y14333D1*
X30305Y14238D1*
X30241Y14187D1*
X30346Y14092D1*
X30417Y13989D1*
X30465Y13874D1*
X30491Y13752D1*
X30494Y13686D1*
X30482Y13562D1*
X30445Y13443D1*
X30385Y13333D1*
X30305Y13238D1*
X30208Y13160D1*
X30097Y13103D1*
X29977Y13069D1*
X29867Y13059D1*
X29276Y13063D1*
X29196Y13068D1*
X28554Y12429D1*
X26187Y10063D1*
X26090Y9986D1*
X25976Y9934D1*
X25814Y9908D1*
X23687D1*
X23466Y9937D1*
Y8105D1*
X23855Y7718D1*
X26513Y7716D1*
X26937D1*
X27061Y7701D1*
X27178Y7658D1*
X27311Y7561D1*
X27656Y7216D1*
X27847D1*
X27734Y7356D1*
X27678Y7468D1*
X27641Y7587D1*
X27625Y7711D1*
X27631Y7835D1*
X27658Y7957D1*
X27705Y8073D1*
X27772Y8178D1*
X27855Y8271D1*
X27954Y8348D1*
X28064Y8407D1*
X28182Y8446D1*
X28349Y8463D1*
X28723Y8468D1*
X29245Y8990D1*
X29012Y8983D1*
X28350Y8987D1*
X28240Y8991D1*
X28119Y9021D1*
X28004Y9071D1*
X27900Y9139D1*
X27809Y9225D1*
X27734Y9325D1*
X27678Y9436D1*
X27641Y9555D1*
X27625Y9679D1*
X27631Y9804D1*
X27658Y9926D1*
X27705Y10041D1*
X27772Y10147D1*
X27855Y10240D1*
X27954Y10317D1*
X28064Y10375D1*
X28217Y10420D1*
X28215Y10494D1*
X28230Y10618D1*
X28273Y10734D1*
X28370Y10868D1*
X30563Y13061D1*
X30661Y13138D1*
X30775Y13190D1*
X30937Y13216D1*
X31058D1*
X31190Y13281D1*
X31312Y13309D1*
X31517Y13314D1*
X31982Y13310D1*
X32027Y13313D1*
X32150Y13291D1*
X32266Y13246D1*
X32371Y13179D1*
X32461Y13092D1*
X32532Y12989D1*
X32581Y12875D1*
X32606Y12752D1*
X32609Y12687D1*
X32597Y12563D1*
X32560Y12444D1*
X32501Y12334D1*
X32420Y12238D1*
X32356Y12187D1*
X32461Y12092D1*
X32532Y11989D1*
X32581Y11875D1*
X32606Y11752D1*
X32609Y11687D1*
X32597Y11563D1*
X32560Y11444D1*
X32501Y11334D1*
X32420Y11238D1*
X32356Y11187D1*
X32461Y11092D1*
X32532Y10989D1*
X32581Y10875D1*
X32606Y10752D1*
X32609Y10687D1*
X32597Y10563D1*
X32560Y10444D1*
X32501Y10334D1*
X32420Y10238D1*
X32356Y10187D1*
X32461Y10092D1*
X32532Y9989D1*
X32581Y9875D1*
X32606Y9752D1*
X32609Y9687D1*
X32597Y9563D1*
X32560Y9444D1*
X32501Y9334D1*
X32420Y9238D1*
X32323Y9161D1*
X32215Y9105D1*
X32216Y6437D1*
X32201Y6313D1*
X32158Y6196D1*
X32061Y6063D1*
X31311Y5313D1*
X31213Y5236D1*
X31100Y5184D1*
X30937Y5158D1*
X29527D1*
X29396Y5094D1*
X29276Y5060D1*
X29137Y5046D1*
X28350Y5050D1*
X28240Y5054D1*
X28119Y5084D1*
X28004Y5134D1*
X27900Y5202D1*
X27809Y5288D1*
X27734Y5388D1*
X27678Y5499D1*
X27641Y5618D1*
X27625Y5742D1*
X27631Y5867D1*
X27658Y5989D1*
X27705Y6104D1*
X27741Y6160D1*
X27437Y6158D1*
X27313Y6173D1*
X27196Y6216D1*
X27063Y6313D1*
X26718Y6658D1*
X17282D1*
X16189Y5563D1*
X16091Y5486D1*
X15978Y5434D1*
X15816Y5408D1*
X8187D1*
X8063Y5423D1*
X7946Y5466D1*
X7813Y5563D1*
X6746Y6630D1*
X6669Y6728D1*
X6617Y6841D1*
X6591Y7004D1*
Y7664D1*
X6513Y7662D1*
Y9408D1*
X6591Y9410D1*
Y10320D1*
X9302Y11656D2*
Y10319D1*
X9224Y10318D1*
Y9407D1*
X9302Y9408D1*
Y9061D1*
X9589Y9064D1*
X9713Y9049D1*
X9830Y9006D1*
X9963Y8909D1*
X10419Y8453D1*
X10416Y9418D1*
X10495Y9420D1*
Y10330D1*
X10416D1*
X10414Y11123D1*
X10408Y11203D1*
Y11464D1*
X10218Y11658D1*
X9300D1*
X13124Y9418D2*
X13206D1*
Y8204D1*
X14813Y9811D1*
X14911Y9888D1*
X15024Y9940D1*
X15187Y9966D1*
X16214D1*
X16508Y10256D1*
X16545Y10415D1*
X16597Y10529D1*
X16669Y10631D1*
X16717Y10677D1*
X15671Y10674D1*
X13206D1*
Y10330D1*
X13127Y10328D1*
Y9418D1*
X11991Y7715D2*
Y9418D1*
X12070Y9420D1*
Y10330D1*
X11991D1*
Y11662D1*
X11660Y11658D1*
X11631Y11634D1*
Y10330D1*
X11552Y10328D1*
Y9418D1*
X11631D1*
Y7714D1*
X11988Y7716D1*
X8632Y16517D2*
X8700Y16643D1*
X8761Y16720D1*
X8683Y16818D1*
X8632Y16919D1*
X7415Y16921D1*
X6778Y16280D1*
X5963Y15465D1*
X5966Y14687D1*
Y13410D1*
X6405Y12967D1*
X7160Y12966D1*
X7063Y13063D1*
X6986Y13161D1*
X6934Y13274D1*
X6908Y13437D1*
Y15187D1*
X6923Y15311D1*
X6966Y15428D1*
X7063Y15561D1*
X7863Y16361D1*
X7961Y16438D1*
X8075Y16490D1*
X8237Y16516D1*
X8632D1*
X8984Y15111D2*
X8856Y15177D1*
X8761Y15258D1*
X8683Y15356D1*
X8632Y15457D1*
X8454Y15458D1*
X7967Y14970D1*
X7966Y13660D1*
X8695Y12927D1*
X8907Y12714D1*
X9847Y12716D1*
X9563Y13002D1*
X9486Y13100D1*
X9432Y13221D1*
X9375Y13193D1*
X9278Y13115D1*
X9167Y13058D1*
X9047Y13024D1*
X8922Y13015D1*
X8798Y13030D1*
X8680Y13070D1*
X8572Y13132D1*
X8478Y13214D1*
X8403Y13314D1*
X8348Y13426D1*
X8317Y13547D1*
X8310Y13642D1*
X8314Y14232D1*
X8329Y14386D1*
X8371Y14503D1*
X8436Y14610D1*
X8521Y14701D1*
X8622Y14774D1*
X8675Y14799D1*
X8986Y15109D1*
X8632Y17979D2*
X8700Y18106D1*
X8782Y18200D1*
X8881Y18276D1*
X8993Y18331D1*
X9113Y18363D1*
X9238Y18371D1*
X9361Y18355D1*
X9479Y18314D1*
X9587Y18251D1*
X9680Y18168D1*
X9755Y18068D1*
X9809Y17955D1*
X9840Y17835D1*
X9847Y17615D1*
Y17470D1*
X10888Y18511D1*
X6580Y18513D1*
X4322D1*
Y17681D1*
X4404Y17797D1*
X4489Y17889D1*
X4585Y17969D1*
X4690Y18037D1*
X4802Y18092D1*
X4921Y18132D1*
X5043Y18157D1*
X5167Y18167D1*
X5292Y18162D1*
X5415Y18142D1*
X5535Y18106D1*
X5650Y18056D1*
X5757Y17992D1*
X5856Y17915D1*
X5944Y17827D1*
X6021Y17729D1*
X6085Y17622D1*
X6136Y17507D1*
X6172Y17388D1*
X6197Y17193D1*
X6825Y17823D1*
X6923Y17900D1*
X7037Y17952D1*
X7199Y17978D1*
X8633D1*
X25386Y12562D2*
X25360Y12440D1*
X25319Y12322D1*
X25262Y12211D1*
X25190Y12108D1*
X25106Y12016D1*
X25042Y11964D1*
X25464Y11966D1*
X26197Y12695D1*
X27410Y13907D1*
X22178Y13908D1*
X22311Y13811D1*
X23557Y12565D1*
X23555Y12788D1*
X23577Y12911D1*
X23616Y13030D1*
X23670Y13143D1*
X23739Y13247D1*
X23821Y13341D1*
X23916Y13423D1*
X24020Y13491D1*
X24133Y13544D1*
X24252Y13582D1*
X24375Y13604D1*
X24500Y13608D1*
X24624Y13596D1*
X24746Y13567D1*
X24862Y13522D1*
X24972Y13462D1*
X25072Y13387D1*
X25161Y13300D1*
X25237Y13201D1*
X25300Y13093D1*
X25347Y12977D1*
X25378Y12856D1*
X25394Y12686D1*
X25386Y12562D1*
X13538Y14408D2*
X13561Y14298D1*
X13564Y13857D1*
X13560Y13642D1*
X13552Y13518D1*
X13537Y13469D1*
X14376Y13466D1*
X14966D1*
X15508Y14009D1*
X15383Y14007D1*
X15260Y14029D1*
X15143Y14072D1*
X15036Y14136D1*
X14942Y14218D1*
X14865Y14316D1*
X14807Y14427D1*
X14776Y14527D1*
X14713Y14486D1*
X14600Y14434D1*
X14437Y14408D1*
X13542D1*
X29852Y7616D2*
X29820Y7495D1*
X29768Y7382D1*
X29697Y7279D1*
X29635Y7215D1*
X29714Y7216D1*
X30157Y7655D1*
X30158Y8410D1*
X29794Y8043D1*
X29840Y7922D1*
X29863Y7740D1*
X29852Y7616D1*
X30972Y6975D2*
X30311Y6313D1*
X30206Y6232D1*
X30203Y6216D1*
X30715D1*
X31157Y6655D1*
X31158Y7196D1*
X31061Y7063D1*
X30972Y6975D1*
X17120Y13617D2*
X17313Y13811D1*
X17411Y13888D1*
X17524Y13940D1*
X17687Y13966D1*
X17944Y13968D1*
X17866Y14066D1*
X17808Y14177D1*
X17771Y14296D1*
X17757Y14420D1*
X17765Y14544D1*
X17795Y14662D1*
X17660Y14658D1*
X16927Y13929D1*
X15714Y12717D1*
X16542Y12716D1*
X16520Y12796D1*
X16505Y12920D1*
X16514Y13044D1*
X16545Y13165D1*
X16597Y13279D1*
X16669Y13381D1*
X16759Y13468D1*
X16863Y13537D1*
X16977Y13586D1*
X17119Y13614D1*
X17903Y12906D2*
X17865Y12867D1*
X17831Y12719D1*
X18937Y12716D1*
X21910D1*
X21715Y12911D1*
X20937Y12908D1*
X17910D1*
D18*
X7120Y11193D3*
Y8535D3*
X8695Y11193D3*
Y8535D3*
X12598Y8545D3*
Y11203D3*
X11024Y8545D3*
Y11203D3*
D19*
X9215Y15987D3*
X14215D3*
X9215Y17449D3*
X14215D3*
D20*
X31687Y9687D3*
Y10687D3*
Y11687D3*
Y12687D3*
X29572Y17686D3*
Y16686D3*
Y15686D3*
Y14686D3*
Y13686D3*
Y12686D3*
D21*
X8937Y13937D3*
X9937D3*
X10937D3*
X11937D3*
X12937D3*
D22*
X28744Y9709D3*
Y7740D3*
Y5772D3*
M02*
