M48
INCH
T01C0.0354
T02C0.038
T03C0.0492
T04C0.086
T05C0.0984
T06C0.1181
%
T01
X+009215Y+015987
X+009215Y+017449
X+008937Y+013937
X+009937Y+013937
X+010937Y+013937
X+011937Y+013937
X+012937Y+013937
X+015437Y+014687
X+017187Y+012937
X+018439Y+014437
X+018439Y+017626
X+014215Y+017449
X+017187Y+010187
X+015437Y+007937
X+029572Y+012686
X+029572Y+013686
X+029572Y+014686
X+029572Y+015686
X+029572Y+016686
X+029572Y+017686
X+031687Y+012687
X+031687Y+011687
X+031687Y+010687
X+031687Y+009687
T02
X+014215Y+015987
T03
X+028744Y+009709
X+028744Y+007740
X+028744Y+005772
T04
X+009437Y+007337
T05
X+005187Y+017156
X+005187Y+006526
X+032187Y+017156
T06
X+024472Y+012686
X+024472Y+017686
T00
M30
