G04 DipTrace 2.3.1.0*
%INTopSilk.gbr*%
%MOIN*%
%ADD10C,0.0098*%
%ADD43C,0.0077*%
%ADD44C,0.0046*%
%FSLAX44Y44*%
G04*
G70*
G90*
G75*
G01*
%LNTopSilk*%
%LPD*%
X15437Y14282D2*
D10*
Y8342D1*
X17187Y10592D2*
Y12532D1*
X18439Y17221D2*
Y14842D1*
X13216Y15487D2*
X10215D1*
Y16487D2*
Y15487D1*
X13216Y16487D2*
X10215D1*
X13216D2*
Y15487D1*
Y16949D2*
X10215D1*
Y17949D2*
Y16949D1*
X13216Y17949D2*
X10215D1*
X13216D2*
Y16949D1*
X33006Y13627D2*
Y8745D1*
X31628D1*
X31037Y9296D1*
Y13627D1*
X33006D1*
X20072Y11686D2*
X30572D1*
Y18686D1*
X20072D1*
Y11686D1*
X8437Y14437D2*
X13437D1*
Y6437D1*
X8437D1*
Y14437D1*
X18507Y4000D2*
X30712D1*
Y11480D1*
X18507D1*
Y4000D1*
X11411Y16172D2*
D43*
X11459Y16197D1*
X11531Y16268D1*
Y15766D1*
X11685Y16269D2*
Y15766D1*
X12020Y16269D2*
X11685Y15934D1*
X11804Y16054D2*
X12020Y15766D1*
X11411Y17634D2*
X11459Y17659D1*
X11531Y17730D1*
Y17228D1*
X11685Y17731D2*
Y17228D1*
X12020Y17731D2*
X11685Y17396D1*
X11804Y17516D2*
X12020Y17228D1*
X23883Y15468D2*
Y15109D1*
X23907Y15037D1*
X23955Y14990D1*
X24027Y14965D1*
X24074D1*
X24146Y14990D1*
X24194Y15037D1*
X24218Y15109D1*
Y15468D1*
X24707Y15396D2*
X24660Y15444D1*
X24588Y15468D1*
X24492D1*
X24420Y15444D1*
X24372Y15396D1*
Y15348D1*
X24397Y15300D1*
X24420Y15277D1*
X24468Y15253D1*
X24612Y15205D1*
X24660Y15181D1*
X24684Y15157D1*
X24707Y15109D1*
Y15037D1*
X24660Y14990D1*
X24588Y14965D1*
X24492D1*
X24420Y14990D1*
X24372Y15037D1*
X24862Y15468D2*
Y14965D1*
X25077D1*
X25149Y14990D1*
X25173Y15013D1*
X25197Y15061D1*
Y15133D1*
X25173Y15181D1*
X25149Y15205D1*
X25077Y15228D1*
X25149Y15253D1*
X25173Y15277D1*
X25197Y15324D1*
Y15372D1*
X25173Y15420D1*
X25149Y15444D1*
X25077Y15468D1*
X24862D1*
Y15228D2*
X25077D1*
X25351Y15216D2*
X25627D1*
X25782Y15468D2*
Y14965D1*
X26271Y15396D2*
X26224Y15444D1*
X26152Y15468D1*
X26056D1*
X25984Y15444D1*
X25936Y15396D1*
Y15348D1*
X25961Y15300D1*
X25984Y15277D1*
X26032Y15253D1*
X26176Y15205D1*
X26224Y15181D1*
X26247Y15157D1*
X26271Y15109D1*
Y15037D1*
X26224Y14990D1*
X26152Y14965D1*
X26056D1*
X25984Y14990D1*
X25936Y15037D1*
X26760Y15396D2*
X26713Y15444D1*
X26641Y15468D1*
X26545D1*
X26474Y15444D1*
X26426Y15396D1*
Y15348D1*
X26450Y15300D1*
X26474Y15277D1*
X26521Y15253D1*
X26665Y15205D1*
X26713Y15181D1*
X26737Y15157D1*
X26760Y15109D1*
Y15037D1*
X26713Y14990D1*
X26641Y14965D1*
X26545D1*
X26474Y14990D1*
X26426Y15037D1*
X11158Y8860D2*
X10656D1*
X11158Y8669D1*
X10656Y8477D1*
X11158D1*
X10656Y9014D2*
X10679Y9038D1*
X10656Y9062D1*
X10631Y9038D1*
X10656Y9014D1*
X10823Y9038D2*
X11158D1*
X10823Y9217D2*
X11158D1*
X10919D2*
X10847Y9289D1*
X10823Y9337D1*
Y9408D1*
X10847Y9456D1*
X10919Y9480D1*
X11158D1*
X10656Y9634D2*
X11158D1*
Y10171D2*
X10656D1*
X11158Y9980D1*
X10656Y9789D1*
X11158D1*
X10656Y10325D2*
X11014D1*
X11086Y10349D1*
X11134Y10397D1*
X11158Y10469D1*
Y10517D1*
X11134Y10588D1*
X11086Y10637D1*
X11014Y10660D1*
X10656D1*
X10907Y10815D2*
Y11091D1*
X10823Y11557D2*
X10895Y11532D1*
X10943Y11485D1*
X10967Y11413D1*
Y11389D1*
X10943Y11317D1*
X10895Y11270D1*
X10823Y11245D1*
X10799D1*
X10728Y11270D1*
X10680Y11317D1*
X10656Y11389D1*
Y11413D1*
X10680Y11485D1*
X10728Y11532D1*
X10823Y11557D1*
X10943D1*
X11062Y11532D1*
X11134Y11485D1*
X11158Y11413D1*
Y11365D1*
X11134Y11294D1*
X11086Y11270D1*
X10823Y11711D2*
X11158Y11855D1*
X10823Y11998D1*
X10776Y12177D2*
X10752D1*
X10704Y12200D1*
X10680Y12224D1*
X10656Y12272D1*
Y12368D1*
X10680Y12415D1*
X10704Y12439D1*
X10752Y12463D1*
X10799D1*
X10847Y12439D1*
X10919Y12392D1*
X11158Y12152D1*
Y12487D1*
X22503Y5571D2*
X22861D1*
X22933Y5594D1*
X22981Y5642D1*
X23005Y5714D1*
Y5762D1*
X22981Y5834D1*
X22933Y5882D1*
X22861Y5906D1*
X22503D1*
X22574Y6395D2*
X22526Y6347D1*
X22503Y6275D1*
Y6180D1*
X22526Y6108D1*
X22574Y6060D1*
X22622D1*
X22670Y6084D1*
X22694Y6108D1*
X22718Y6156D1*
X22766Y6299D1*
X22789Y6347D1*
X22814Y6371D1*
X22861Y6395D1*
X22933D1*
X22981Y6347D1*
X23005Y6275D1*
Y6180D1*
X22981Y6108D1*
X22933Y6060D1*
X22503Y6549D2*
X23005D1*
Y6765D1*
X22981Y6837D1*
X22957Y6860D1*
X22909Y6884D1*
X22838D1*
X22789Y6860D1*
X22766Y6837D1*
X22742Y6765D1*
X22718Y6837D1*
X22694Y6860D1*
X22646Y6884D1*
X22598D1*
X22551Y6860D1*
X22526Y6837D1*
X22503Y6765D1*
Y6549D1*
X22742D2*
Y6765D1*
X22754Y7039D2*
Y7315D1*
X22742Y7469D2*
Y7684D1*
X22718Y7756D1*
X22694Y7780D1*
X22646Y7804D1*
X22598D1*
X22551Y7780D1*
X22526Y7756D1*
X22503Y7684D1*
Y7469D1*
X23005D1*
X22742Y7637D2*
X23005Y7804D1*
X22574Y8294D2*
X22526Y8246D1*
X22503Y8174D1*
Y8079D1*
X22526Y8007D1*
X22574Y7959D1*
X22622D1*
X22670Y7983D1*
X22694Y8007D1*
X22718Y8054D1*
X22766Y8198D1*
X22789Y8246D1*
X22814Y8270D1*
X22861Y8294D1*
X22933D1*
X22981Y8246D1*
X23005Y8174D1*
Y8079D1*
X22981Y8007D1*
X22933Y7959D1*
X23005Y8687D2*
X22503D1*
X22838Y8448D1*
Y8807D1*
X22503Y9080D2*
X22527Y9009D1*
X22574Y8985D1*
X22623D1*
X22670Y9009D1*
X22694Y9057D1*
X22718Y9152D1*
X22742Y9224D1*
X22790Y9272D1*
X22838Y9295D1*
X22909D1*
X22957Y9272D1*
X22981Y9248D1*
X23005Y9176D1*
Y9080D1*
X22981Y9009D1*
X22957Y8985D1*
X22909Y8961D1*
X22838D1*
X22790Y8985D1*
X22742Y9033D1*
X22718Y9104D1*
X22694Y9200D1*
X22670Y9248D1*
X22623Y9272D1*
X22574D1*
X22527Y9248D1*
X22503Y9176D1*
Y9080D1*
Y9737D2*
Y9498D1*
X22718Y9474D1*
X22694Y9498D1*
X22670Y9570D1*
Y9641D1*
X22694Y9713D1*
X22742Y9761D1*
X22814Y9785D1*
X22861D1*
X22933Y9761D1*
X22981Y9713D1*
X23005Y9641D1*
Y9570D1*
X22981Y9498D1*
X22957Y9474D1*
X22909Y9450D1*
X27834Y12975D2*
X27811Y13023D1*
X27762Y13071D1*
X27715Y13095D1*
X27619D1*
X27571Y13071D1*
X27524Y13023D1*
X27499Y12975D1*
X27476Y12903D1*
Y12783D1*
X27499Y12712D1*
X27524Y12664D1*
X27571Y12617D1*
X27619Y12592D1*
X27715D1*
X27762Y12617D1*
X27811Y12664D1*
X27834Y12712D1*
Y12783D1*
X27715D1*
X28324Y13095D2*
Y12592D1*
X27989Y13095D1*
Y12592D1*
X28478Y13095D2*
Y12592D1*
X28645D1*
X28717Y12617D1*
X28765Y12664D1*
X28789Y12712D1*
X28813Y12783D1*
Y12903D1*
X28789Y12975D1*
X28765Y13023D1*
X28717Y13071D1*
X28645Y13095D1*
X28478D1*
X27476Y18095D2*
X27667Y17592D1*
X27858Y18095D1*
X28371Y17975D2*
X28347Y18023D1*
X28299Y18071D1*
X28252Y18095D1*
X28156D1*
X28108Y18071D1*
X28061Y18023D1*
X28036Y17975D1*
X28012Y17903D1*
Y17783D1*
X28036Y17712D1*
X28061Y17664D1*
X28108Y17617D1*
X28156Y17592D1*
X28252D1*
X28299Y17617D1*
X28347Y17664D1*
X28371Y17712D1*
X28884Y17975D2*
X28860Y18023D1*
X28812Y18071D1*
X28765Y18095D1*
X28669D1*
X28621Y18071D1*
X28574Y18023D1*
X28549Y17975D1*
X28526Y17903D1*
Y17783D1*
X28549Y17712D1*
X28574Y17664D1*
X28621Y17617D1*
X28669Y17592D1*
X28765D1*
X28812Y17617D1*
X28860Y17664D1*
X28884Y17712D1*
X27811Y17023D2*
X27763Y17071D1*
X27691Y17095D1*
X27596D1*
X27524Y17071D1*
X27476Y17023D1*
Y16975D1*
X27500Y16927D1*
X27524Y16903D1*
X27571Y16880D1*
X27715Y16832D1*
X27763Y16808D1*
X27787Y16783D1*
X27811Y16736D1*
Y16664D1*
X27763Y16617D1*
X27691Y16592D1*
X27596D1*
X27524Y16617D1*
X27476Y16664D1*
X27965Y17095D2*
Y16592D1*
X28132D1*
X28204Y16617D1*
X28252Y16664D1*
X28276Y16712D1*
X28300Y16783D1*
Y16903D1*
X28276Y16975D1*
X28252Y17023D1*
X28204Y17071D1*
X28132Y17095D1*
X27965D1*
X28837Y16592D2*
X28645Y17095D1*
X28454Y16592D1*
X28526Y16760D2*
X28765D1*
X27811Y16023D2*
X27763Y16071D1*
X27691Y16095D1*
X27596D1*
X27524Y16071D1*
X27476Y16023D1*
Y15975D1*
X27500Y15927D1*
X27524Y15903D1*
X27571Y15880D1*
X27715Y15832D1*
X27763Y15808D1*
X27787Y15783D1*
X27811Y15736D1*
Y15664D1*
X27763Y15617D1*
X27691Y15592D1*
X27596D1*
X27524Y15617D1*
X27476Y15664D1*
X28324Y15975D2*
X28300Y16023D1*
X28252Y16071D1*
X28204Y16095D1*
X28109D1*
X28061Y16071D1*
X28013Y16023D1*
X27989Y15975D1*
X27965Y15903D1*
Y15783D1*
X27989Y15712D1*
X28013Y15664D1*
X28061Y15617D1*
X28109Y15592D1*
X28204D1*
X28252Y15617D1*
X28300Y15664D1*
X28324Y15712D1*
X28478Y16095D2*
Y15592D1*
X28765D1*
X10675Y15028D2*
D44*
X10661Y15057D1*
X10632Y15086D1*
X10604Y15100D1*
X10546D1*
X10518Y15086D1*
X10489Y15057D1*
X10474Y15028D1*
X10460Y14985D1*
Y14913D1*
X10474Y14870D1*
X10489Y14842D1*
X10518Y14813D1*
X10546Y14799D1*
X10604D1*
X10632Y14813D1*
X10661Y14842D1*
X10675Y14870D1*
Y14913D1*
X10604D1*
X10969Y15100D2*
Y14799D1*
X10768Y15100D1*
Y14799D1*
X11062Y15100D2*
Y14799D1*
X11162D1*
X11205Y14813D1*
X11234Y14842D1*
X11248Y14870D1*
X11263Y14913D1*
Y14985D1*
X11248Y15028D1*
X11234Y15057D1*
X11205Y15086D1*
X11162Y15100D1*
X11062D1*
X11585Y15085D2*
X11700Y14784D1*
X11815Y15085D1*
X11907D2*
Y14784D1*
X12201Y15085D2*
Y14784D1*
X12000Y15085D1*
Y14784D1*
X9661Y15057D2*
X9633Y15086D1*
X9589Y15100D1*
X9532D1*
X9489Y15086D1*
X9460Y15057D1*
Y15028D1*
X9475Y14999D1*
X9489Y14985D1*
X9518Y14971D1*
X9604Y14942D1*
X9633Y14928D1*
X9647Y14913D1*
X9661Y14885D1*
Y14842D1*
X9633Y14813D1*
X9589Y14799D1*
X9532D1*
X9489Y14813D1*
X9460Y14842D1*
X9754Y15100D2*
Y14799D1*
X9854D1*
X9897Y14813D1*
X9926Y14842D1*
X9940Y14870D1*
X9955Y14913D1*
Y14985D1*
X9940Y15028D1*
X9926Y15057D1*
X9897Y15086D1*
X9854Y15100D1*
X9754D1*
X10277Y14799D2*
X10162Y15100D1*
X10047Y14799D1*
X10090Y14899D2*
X10234D1*
X8661Y15042D2*
X8633Y15071D1*
X8589Y15085D1*
X8532D1*
X8489Y15071D1*
X8460Y15042D1*
Y15014D1*
X8475Y14985D1*
X8489Y14971D1*
X8518Y14956D1*
X8604Y14927D1*
X8633Y14913D1*
X8647Y14899D1*
X8661Y14870D1*
Y14827D1*
X8633Y14798D1*
X8589Y14784D1*
X8532D1*
X8489Y14798D1*
X8460Y14827D1*
X8969Y15014D2*
X8955Y15042D1*
X8926Y15071D1*
X8897Y15085D1*
X8840D1*
X8811Y15071D1*
X8783Y15042D1*
X8768Y15014D1*
X8754Y14971D1*
Y14899D1*
X8768Y14856D1*
X8783Y14827D1*
X8811Y14798D1*
X8840Y14784D1*
X8897D1*
X8926Y14798D1*
X8955Y14827D1*
X8969Y14856D1*
X9062Y15085D2*
Y14784D1*
X9234D1*
X26288Y10220D2*
D43*
X26479Y9717D1*
X26671Y10220D1*
X26825Y9908D2*
X27112D1*
Y9957D1*
X27088Y10005D1*
X27064Y10028D1*
X27016Y10052D1*
X26944D1*
X26897Y10028D1*
X26849Y9980D1*
X26825Y9908D1*
Y9861D1*
X26849Y9789D1*
X26897Y9742D1*
X26944Y9717D1*
X27016D1*
X27064Y9742D1*
X27112Y9789D1*
X27266Y9968D2*
X27543D1*
X26226Y8220D2*
X26417Y7717D1*
X26608Y8220D1*
X26762Y7908D2*
X27049D1*
Y7957D1*
X27026Y8005D1*
X27002Y8028D1*
X26954Y8052D1*
X26882D1*
X26834Y8028D1*
X26786Y7980D1*
X26762Y7908D1*
Y7861D1*
X26786Y7789D1*
X26834Y7742D1*
X26882Y7717D1*
X26954D1*
X27002Y7742D1*
X27049Y7789D1*
X27419Y8183D2*
Y7753D1*
X27204Y7968D2*
X27634D1*
X26632Y5711D2*
X26608Y5758D1*
X26560Y5806D1*
X26513Y5830D1*
X26417D1*
X26369Y5806D1*
X26321Y5758D1*
X26297Y5711D1*
X26273Y5639D1*
Y5519D1*
X26297Y5447D1*
X26321Y5399D1*
X26369Y5352D1*
X26417Y5328D1*
X26513D1*
X26560Y5352D1*
X26608Y5399D1*
X26632Y5447D1*
Y5519D1*
X26513D1*
X27121Y5830D2*
Y5328D1*
X26787Y5830D1*
Y5328D1*
X27276Y5830D2*
Y5328D1*
X27443D1*
X27515Y5352D1*
X27563Y5399D1*
X27587Y5447D1*
X27611Y5519D1*
Y5639D1*
X27587Y5711D1*
X27563Y5758D1*
X27515Y5806D1*
X27443Y5830D1*
X27276D1*
M02*
